/* XPM */
static char *collectable[] = {
/* columns rows colors chars-per-pixel */
"32 32 6 1 ",
"  c #000001",
". c #F83808",
"X c #AD8C39",
"o c #F89850",
"@ c #D6C68C",
"$ c #846B18",
/* pixels */
"XXXX@@XX@@XXXXXXXXXX@@XX@@XXXXXX",
"XXXX@@XX@@XXXXXXXXXX@@XX@@XXXXXX",
"$$@@XX@@XXXX$$XX$$@@XX@@XXXX$$XX",
"$$@@XX@@XXXX$$XX$$@@XX@@XXXX$$XX",
"@@XX@@XXXXXX        @@XXXXXXXXXX",
"@@XX@@XXXXXX        @@XXXXXXXXXX",
"XX@@XXXX    ........    XXXXXXXX",
"XX@@XXXX    ........    XXXXXXXX",
"XXXXXX  ......oooo......  XX$$$$",
"XXXXXX  ......oooo......  XX$$$$",
"XXXXXX  ......oooo......  $$XXXX",
"XXXXXX  ......oooo......  $$XXXX",
"XXXX  ....................  $$XX",
"XXXX  ....................  $$XX",
"$$XX  ....................  XXXX",
"$$XX  ....................  XXXX",
"XXXX  oooo............oooo  XXXX",
"XXXX  oooo............oooo  XXXX",
"$$@@  oooooooooooooooooooo  $$XX",
"$$@@  oooooooooooooooooooo  $$XX",
"@@XX@@  oooooooooooooooo  XXXXXX",
"@@XX@@  oooooooooooooooo  XXXXXX",
"XX@@XX  oooooooooooooooo  XXXXXX",
"XX@@XX  oooooooooooooooo  XXXXXX",
"XXXXXXXX    oooooooo    $$XX$$$$",
"XXXXXXXX    oooooooo    $$XX$$$$",
"XXXXXX$$XXXX        XX$$XX$$XXXX",
"XXXXXX$$XXXX        XX$$XX$$XXXX",
"XXXXXXXX$$XX$$XXXXXXXXXX$$XX$$XX",
"XXXXXXXX$$XX$$XXXXXXXXXX$$XX$$XX",
"$$XXXXXXXXXXXXXX$$XXXXXXXXXXXXXX",
"$$XXXXXXXXXXXXXX$$XXXXXXXXXXXXXX"
};
