/* XPM */
static char *exit_open[] = {
/* columns rows colors chars-per-pixel */
"32 32 3 1 ",
"  c #F75231",
". c #FF9CC6",
"X c #F7E7D6",
/* pixels */
"                                ",
"                                ",
"  ..XXXXXXXXXXXXXXXXXXXXXXXX..  ",
"  ..XXXXXXXXXXXXXXXXXXXXXXXX..  ",
"  XX                        XX  ",
"  XX                        XX  ",
"  XX                        XX  ",
"  XX                        XX  ",
"  XX                        XX  ",
"  XX                        XX  ",
"  XX                        XX  ",
"  XX                        XX  ",
"  XX                        XX  ",
"  XX                        XX  ",
"  XX                        XX  ",
"  XX                        XX  ",
"  XX                        XX  ",
"  XX                        XX  ",
"  XX                        XX  ",
"  XX                        XX  ",
"  XX                        XX  ",
"  XX                        XX  ",
"  XX                        XX  ",
"  XX                        XX  ",
"  XX                        XX  ",
"  XX                        XX  ",
"  XX                        XX  ",
"  XX                        XX  ",
"  ..XXXXXXXXXXXXXXXXXXXXXXXX..  ",
"  ..XXXXXXXXXXXXXXXXXXXXXXXX..  ",
"                                ",
"                                "
};
