/* XPM */
static char *exit_close[] = {
/* columns rows colors chars-per-pixel */
"32 32 6 1 ",
"  c #383838",
". c #A07818",
"X c #F75231",
"o c #C09038",
"@ c #FF9CC6",
"$ c #F7E7D6",
/* pixels */
"XXXXXXXXXX..        XXXXXXXXXXXX",
"XXXXXXXXXX..        XXXXXXXXXXXX",
"XX@@$$$$        ..oo    $$$$@@XX",
"XX@@$$$$        ..oo    $$$$@@XX",
"XX..    ..        ....    ..$$XX",
"XX..    ..        ....    ..$$XX",
"XX  oo      oooooo          $$XX",
"XX  oo      oooooo          $$XX",
"  oo..  oo  oo....oooo    ..  XX",
"  oo..  oo  oo....oooo    ..  XX",
"  ..  oo....  oo......oo      ..",
"  ..  oo....  oo......oo      ..",
"      oo..oo      ..oo..  ..    ",
"      oo..oo      ..oo..  ..    ",
"..    oo..  ..............      ",
"..    oo..  ..............      ",
"XX      ......oo  ......      ..",
"XX      ......oo  ......      ..",
"  ....  ....oo  ......  ..    XX",
"  ....  ....oo  ......  ..    XX",
"  ..oo..  ....  ....          ..",
"  ..oo..  ....  ....          ..",
"  oo  ....              oo      ",
"  oo  ....              oo      ",
"XX  ......          ..oo  ..  ..",
"XX  ......          ..oo  ..  ..",
"XX    ..          ..  ....    XX",
"XX    ..          ..  ....    XX",
"XX@@                        @@XX",
"XX@@                        @@XX",
"XXXXXXXX..    XXXX      ..XXXXXX",
"XXXXXXXX..    XXXX      ..XXXXXX"
};

