/* XPM */
static char *floor[] = {
/* columns rows colors chars-per-pixel */
"32 32 3 1 ",
"  c #846B18",
". c #AD8C39",
"X c #D6C68C",
/* pixels */
"....XX..XX..........XX..XX......",
"....XX..XX..........XX..XX......",
"  XX..XX....  ..  XX..XX....  ..",
"  XX..XX....  ..  XX..XX....  ..",
"XX..XX..........XX..XX..........",
"XX..XX..........XX..XX..........",
"..XX..............XX............",
"..XX..............XX............",
"........  ..    ........  ..    ",
"........  ..    ........  ..    ",
"......  ..  ..........  ..  ....",
"......  ..  ..........  ..  ....",
"........  ..  ..........  ..  ..",
"........  ..  ..........  ..  ..",
"  ..............  ..............",
"  ..............  ..............",
"....XX..XX..........XX..XX......",
"....XX..XX..........XX..XX......",
"  XX..XX....  ..  XX..XX....  ..",
"  XX..XX....  ..  XX..XX....  ..",
"XX..XX..........XX..XX..........",
"XX..XX..........XX..XX..........",
"..XX..............XX............",
"..XX..............XX............",
"........  ..    ........  ..    ",
"........  ..    ........  ..    ",
"......  ..  ..........  ..  ....",
"......  ..  ..........  ..  ....",
"........  ..  ..........  ..  ..",
"........  ..  ..........  ..  ..",
"  ..............  ..............",
"  ..............  .............."

};
