/* XPM */
static char *floor[] = {
/* columns rows colors chars-per-pixel */
"16 16 3 1 ",
"  c #846B18",
". c #AD8C39",
"X c #D6C68C",
/* pixels */



"..X.X.....X.X...",
" X.X.. . X.X.. .",
"X.X.....X.X.....",
".X.......X......",
".... .  .... .  ",
"... . ..... . ..",
".... . ..... . .",
" ....... .......",
"..X.X.....X.X...",
" X.X.. . X.X.. .",
"X.X.....X.X.....",
".X.......X......",
".... .  .... .  ",
"... . ..... . ..",
".... . ..... . .",
" ....... ......."
};

# _104f118d0b24660dc3753c61322f3285svMmU07bNKYlqXr

"X c #AD8C39",
"@ c #D6C68C",=X
"$ c #846B18",=empty