/* XPM */
static char *player_up[] = {
/* columns rows colors chars-per-pixel */
"16 16 4 1 ",
"  c #000001",
". c #F83808",
"X c #FF7F27",
"o c #F89850",
/* pixels */
"XXXXX      XXXXX",
"XXXX ...... XXXX",
"XXX ........ XXX",
"XXX ........ XXX",
"XX  ........  XX",
"XX   .oooo.   XX",
"X o          o X",
"X oo        oo X",
"XX            XX",
"XXX o.    .o XXX",
"XX .  oooo  . XX",
"X o . .... . o X",
"X o   oooo   o X",
"XX            XX",
"XXX ..    .. XXX",
"XXXX   XX   XXXX"
};

# _06eee70a865449ffda89a45e675cc34wvJTWOgbEWSinrVU