/* XPM */
static char *player_right[] = {
/* columns rows colors chars-per-pixel */
"16 16 4 1 ",
"  c #000001",
". c #F83808",
"X c #FF7F27",
"o c #F89850",
/* pixels */
"XXXXX      XXXXX",
"XXXX ...... XXXX",
"XXX ........ XXX",
"XX  o......  XXX",
"X oooo.....   XX",
"XX  ...       XX",
"XX      oo o XXX",
"XXX  oo oo o XXX",
"XXXX ooooooo XXX",
"XXXX   ooo. XXXX",
"XXX oo     XXXXX",
"XXX ..   . XXXXX",
"XXX oo oo XXXXXX",
"XXXX   oo  XXXXX",
"XXXXX .  .. XXXX",
"XXXXXX     XXXXX"
};

# _d36f8ac560744699b9de471d1b37638viWMJiWdiUoUHTRg