/* XPM */
static char *player_right[] = {
/* columns rows colors chars-per-pixel */
"32 32 6 1 ",
"  c #000001",
". c #F83808",
"X c #AD8C39",
"o c #F89850",
"@ c #D6C68C",
"$ c #846B18"
/* pixels */
"XXXX@@XX@@            XX@@XXXXXX",
"XXXX@@XX@@            XX@@XXXXXX",
"$$@@XX@@  ............  XXXX$$XX",
"$$@@XX@@  ............  XXXX$$XX",
"@@XX@@  ................  XXXXXX",
"@@XX@@  ................  XXXXXX",
"XX@@    oo............    XXXXXX",
"XX@@    oo............    XXXXXX",
"XX  oooooooo..........      $$$$",
"XX  oooooooo..........      $$$$",
"XXXX    ......              XXXX",
"XXXX    ......              XXXX",
"XXXX            oooo  oo  XX$$XX",
"XXXX            oooo  oo  XX$$XX",
"$$XXXX    oooo  oooo  oo  XXXXXX",
"$$XXXX    oooo  oooo  oo  XXXXXX",
"XXXX@@XX  oooooooooooooo  XXXXXX",
"XXXX@@XX  oooooooooooooo  XXXXXX",
"$$@@XX@@      oooooo..  XXXX$$XX",
"$$@@XX@@      oooooo..  XXXX$$XX",
"@@XX@@  oooo          XXXXXXXXXX",
"@@XX@@  oooo          XXXXXXXXXX",
"XX@@XX  ....      ..  XXXXXXXXXX",
"XX@@XX  ....      ..  XXXXXXXXXX",
"XXXXXX  oooo  oooo  XXXX$$XX$$$$",
"XXXXXX  oooo  oooo  XXXX$$XX$$$$",
"XXXXXX$$      oooo    $$XX$$XXXX",
"XXXXXX$$      oooo    $$XX$$XXXX",
"XXXXXXXX$$  ..    ....  $$XX$$XX",
"XXXXXXXX$$  ..    ....  $$XX$$XX",
"$$XXXXXXXXXX          XXXXXXXXXX",
"$$XXXXXXXXXX          XXXXXXXXXX"
};
