/* XPM */
static char *player_down[] = {
/* columns rows colors chars-per-pixel */
"32 32 6 1 ",
"  c #000001",
". c #F83808",
"X c #AD8C39",
"o c #F89850",
"@ c #D6C68C",
"$ c #846B18",
/* pixels */
"XXXX@@XX@@            XX@@XXXXXX",
"XXXX@@XX@@            XX@@XXXXXX",
"$$@@XX@@  ............  XXXX$$XX",
"$$@@XX@@  ............  XXXX$$XX",
"@@XX@@  ................  XXXXXX",
"@@XX@@  ................  XXXXXX",
"XX@@XX  ......    ......  XXXXXX",
"XX@@XX  ......    ......  XXXXXX",
"XXXX    ....        ....    $$$$",
"XXXX    ....        ....    $$$$",
"XXXX        ........        XXXX",
"XXXX        ........        XXXX",
"XX  oo  oooooooooooooooo  oo  XX",
"XX  oo  oooooooooooooooo  oo  XX",
"$$  oooooooo  oooo  oooooooo  XX",
"$$  oooooooo  oooo  oooooooo  XX",
"XXXX    oooo  oooo  oooo    XXXX",
"XXXX    oooo  oooo  oooo    XXXX",
"$$@@XX    oooo....oooo    XX$$XX",
"$$@@XX    oooo....oooo    XX$$XX",
"@@XX    oo..        ..oo    XXXX",
"@@XX    oo..        ..oo    XXXX",
"XX  oooo  oooo....oooo  oooo  XX",
"XX  oooo  oooo....oooo  oooo  XX",
"XX  oooo  ....oooo....  oooo  $$",
"XX  oooo  ....oooo....  oooo  $$",
"XXXX                        XXXX",
"XXXX                        XXXX",
"XXXXXX  ....        ....  XX$$XX",
"XXXXXX  ....        ....  XX$$XX",
"$$XXXXXX      XX$$      XXXXXXXX",
"$$XXXXXX      XX$$      XXXXXXXX"
};
