/* XPM */
static char *player_left[] = {
/* columns rows colors chars-per-pixel */
"32 32 6 1 ",
"  c #000001",
". c #F83808",
"X c #AD8C39",
"o c #F89850",
"@ c #D6C68C",
"$ c #846B18"
/* pixels */
"XXXX@@XX@@            XX@@XXXXXX",
"XXXX@@XX@@            XX@@XXXXXX",
"$$@@XX@@  ............  XXXX$$XX",
"$$@@XX@@  ............  XXXX$$XX",
"@@XX@@  ................  XXXXXX",
"@@XX@@  ................  XXXXXX",
"XX@@XX    ............oo    XXXX",
"XX@@XX    ............oo    XXXX",
"XXXX      ..........oooooooo  $$",
"XXXX      ..........oooooooo  $$",
"XXXX              ......    XXXX",
"XXXX              ......    XXXX",
"XXXXXX  oo  oooo            $$XX",
"XXXXXX  oo  oooo            $$XX",
"$$XXXX  oo  oooo  oooo    XXXXXX",
"$$XXXX  oo  oooo  oooo    XXXXXX",
"XXXX@@  oooooooooooooo  XXXXXXXX",
"XXXX@@  oooooooooooooo  XXXXXXXX",
"$$@@XX@@  ..oooooo      XXXX$$XX",
"$$@@XX@@  ..oooooo      XXXX$$XX",
"@@XX@@XXXX          oooo  XXXXXX",
"@@XX@@XXXX          oooo  XXXXXX",
"XX@@XXXXXX  ..      ....  XXXXXX",
"XX@@XXXXXX  ..      ....  XXXXXX",
"XXXXXXXX$$XX  oooo  oooo  XX$$$$",
"XXXXXXXX$$XX  oooo  oooo  XX$$$$",
"XXXXXX$$XX    oooo      XX$$XXXX",
"XXXXXX$$XX    oooo      XX$$XXXX",
"XXXXXXXX  ....    ..  XX$$XX$$XX",
"XXXXXXXX  ....    ..  XX$$XX$$XX",
"$$XXXXXXXX          XXXXXXXXXXXX",
"$$XXXXXXXX          XXXXXXXXXXXX"
};
