/* XPM */
static char *player_down[] = {
/* columns rows colors chars-per-pixel */
"16 16 6 1 ",
"  c #000001",
". c #F83808",
"X c #AD8C39",
"o c #F89850",
"@ c #D6C68C",
"$ c #846B18",
/* pixels */
"XX@X@      X@XXX",
"$@X@ ...... XX$X",
"@X@ ........ XXX",
"X@X ...  ... XXX",
"XX  ..    ..  $$",
"XX    ....    XX",
"X o oooooooo o X",
"$ oooo oo oooo X",
"XX  oo oo oo  XX",
"$@X  oo..oo  X$X",
"@X  o.    .o  XX",
"X oo oo..oo oo X",
"X oo ..oo.. oo $",
"XX            XX",
"XXX ..    .. X$X",
"$XXX   X$   XXXX"
};
