/* XPM */
static char *player_left[] = {
/* columns rows colors chars-per-pixel */
"16 16 6 1 ",
"  c #000001",
". c #F83808",
"X c #AD8C39",
"o c #F89850",
"@ c #D6C68C",
"$ c #846B18"
/* pixels */
"XX@X@      X@XXX",
"$@X@ ...... XX$X",
"@X@ ........ XXX",
"X@X  ......o  XX",
"XX   .....oooo $",
"XX       ...  XX",
"XXX o oo      $X",
"$XX o oo oo  XXX",
"XX@ ooooooo XXXX",
"$@X@ .ooo   XX$X",
"@X@XX     oo XXX",
"X@XXX .   .. XXX",
"XXXX$X oo oo X$$",
"XXX$X  oo   X$XX",
"XXXX ..  . X$X$X",
"$XXXX     XXXXXX"
};