/* XPM */
static char *player_up[] = {
/* columns rows colors chars-per-pixel */
"32 32 6 1 ",
"  c #000001",
". c #F83808",
"X c #AD8C39",
"o c #F89850",
"@ c #D6C68C",
"$ c #846B18"
/* pixels */
"XXXX@@XX@@            XX@@XXXXXX",
"XXXX@@XX@@            XX@@XXXXXX",
"$$@@XX@@  ............  XXXX$$XX",
"$$@@XX@@  ............  XXXX$$XX",
"@@XX@@  ................  XXXXXX",
"@@XX@@  ................  XXXXXX",
"XX@@XX  ................  XXXXXX",
"XX@@XX  ................  XXXXXX",
"XXXX    ................    $$$$",
"XXXX    ................    $$$$",
"XXXX      ..oooooooo..      XXXX",
"XXXX      ..oooooooo..      XXXX",
"XX  oo                    oo  XX",
"XX  oo                    oo  XX",
"$$  oooo                oooo  XX",
"$$  oooo                oooo  XX",
"XXXX                        XXXX",
"XXXX                        XXXX",
"$$@@XX  oo..        ..oo  XX$$XX",
"$$@@XX  oo..        ..oo  XX$$XX",
"@@XX  ..    oooooooo    ..  XXXX",
"@@XX  ..    oooooooo    ..  XXXX",
"XX  oo  ..  ........  ..  oo  XX",
"XX  oo  ..  ........  ..  oo  XX",
"XX  oo      oooooooo      oo  $$",
"XX  oo      oooooooo      oo  $$",
"XXXX                        XXXX",
"XXXX                        XXXX",
"XXXXXX  ....        ....  XX$$XX",
"XXXXXX  ....        ....  XX$$XX",
"$$XXXXXX      XX$$      XXXXXXXX",
"$$XXXXXX      XX$$      XXXXXXXX"
};
