/* XPM */
static char *wall[] = {
/* columns rows colors chars-per-pixel */
"32 32 4 1 ",
"  c #393939",
". c #846B18",
"X c #AD8C39",
"o c #D6C68C",
/* pixels */
"XXXXXXXXXX..........XXXXXXXXXXXX",
"XXXXXXXXXX..........XXXXXXXXXXXX",
"XXXXXX..  ooooXXXX..  XXXXXX..XX",
"XXXXXX..  ooooXXXX..  XXXXXX..XX",
"XXXX  ooooooooXXXXXX..  XXXXXXXX",
"XXXX  ooooooooXXXXXX..  XXXXXXXX",
"XX  ooooooooooXXXX......  XXXXXX",
"XX  ooooooooooXXXX......  XXXXXX",
"..ooooooooooooXXXXXX..  ..  XXXX",
"..ooooooooooooXXXXXX..  ..  XXXX",
"  ooooooooooXXXX........    XXXX",
"  ooooooooooXXXX........    XXXX",
"..ooooooXXXX......  ..  ..  ..XX",
"..ooooooXXXX......  ..  ..  ..XX",
"XXXXXXoo....  ..  ..  ..  ..    ",
"XXXXXXoo....  ..  ..  ..  ..    ",
"XXoooo....  ......  ..  ..      ",
"XXoooo....  ......  ..  ..      ",
"..ooXX..  ..  XX....  ..  ..    ",
"..ooXX..  ..  XX....  ..  ..    ",
"..........  XXXXXX  ..  ..  ..  ",
"..........  XXXXXX  ..  ..  ..  ",
"  ......  XXXXXX  ..  ..    ....",
"  ......  XXXXXX  ..  ..    ....",
"..  ..  ..XXXX  ..      XX..    ",
"..  ..  ..XXXX  ..      XX..    ",
"  ..      ..  XXXX..    ....  ..",
"  ..      ..  XXXX..    ....  ..",
"..  ..  ..  XXXX....  ..    ..XX",
"..  ..  ..  XXXX....  ..    ..XX",
"XX..  ..  ..        ....XXXXXXXX",
"XX..  ..  ..        ....XXXXXXXX"
};
